<?xml version="1.0" standalone="no"?><!DOCTYPE svg PUBLIC "-//W3C//DTD SVG 1.1//EN" "http://www.w3.org/Graphics/SVG/1.1/DTD/svg11.dtd"><svg t="1584519804686" class="icon" viewBox="0 0 1024 1024" version="1.1" xmlns="http://www.w3.org/2000/svg" p-id="5764" xmlns:xlink="http://www.w3.org/1999/xlink" width="200" height="200"><defs><style type="text/css"></style></defs><path d="M511.426871 1023.559715C442.439806 1023.559715 375.427213 1010.083901 312.387782 983.382513 251.461666 957.614276 196.878724 920.740238 149.959577 873.819473 103.040429 826.900329 66.16639 772.184999 40.398153 711.391268 13.703221 648.35184 0.219335 581.345703 0.219335 512.353794 0.219335 443.366729 13.703221 376.354136 40.398153 313.316321 66.16639 252.38859 103.040429 197.807263 149.959577 150.886502 196.878724 103.967354 251.594051 67.093315 312.387782 41.325078 375.427213 14.630146 442.439806 1.14626 511.426871 1.14626 580.41878 1.14626 647.424914 14.630146 710.464345 41.325078 771.390459 67.093315 825.973402 103.967354 872.892551 150.886502 919.813312 197.807263 956.685738 252.520975 982.453975 313.316321 1009.155363 376.354136 1022.632793 443.366729 1022.632793 512.353794 1022.632793 581.345703 1009.155363 648.35184 982.453975 711.391268 956.685738 772.317385 919.813312 826.900329 872.892551 873.819473 825.973402 920.740238 771.258076 957.614276 710.464345 983.382513 647.424914 1010.083901 580.41878 1023.559715 511.426871 1023.559715L511.426871 1023.559715ZM511.426871 67.358085C392.480648 67.358085 280.799452 113.615308 196.613954 197.674878 112.555998 281.726377 66.298775 393.539957 66.298775 512.353794 66.298775 631.300017 112.555998 742.979599 196.613954 827.032712 280.667067 911.090668 392.480648 957.349506 511.426871 957.349506 630.371479 957.349506 742.052673 911.090668 826.238172 827.032712 910.296129 742.979599 956.553351 631.166019 956.553351 512.353794 956.553351 393.407574 910.296129 281.726377 826.238172 197.674878 742.052673 113.615308 630.371479 67.358085 511.426871 67.358085L511.426871 67.358085Z" p-id="5765"></path><path d="M465.829956 198.072033 475.479525 642.928902 544.729744 642.928902 554.379314 198.072033 465.829956 198.072033 465.829956 198.072033ZM471.512823 751.57009C460.413478 762.404662 454.862997 775.489778 454.862997 790.952983 454.862997 806.680953 460.413478 819.900072 471.512823 830.602261 482.618624 841.31091 495.962051 846.595005 511.426871 846.595005 526.890072 846.595005 540.239962 841.31091 551.339304 830.602261 562.438649 819.900072 567.995586 806.680953 567.995586 790.952983 567.995586 775.489778 562.438649 762.277119 551.339304 751.57009 540.239962 740.735514 526.890072 735.31096 511.426871 735.31096 495.962051 735.31096 482.618624 740.735514 471.512823 751.57009L471.512823 751.57009Z" p-id="5766"></path></svg>