<?xml version="1.0" standalone="no"?><!DOCTYPE svg PUBLIC "-//W3C//DTD SVG 1.1//EN" "http://www.w3.org/Graphics/SVG/1.1/DTD/svg11.dtd"><svg t="1585117905677" class="icon" viewBox="0 0 1024 1024" version="1.1" xmlns="http://www.w3.org/2000/svg" p-id="4687" xmlns:xlink="http://www.w3.org/1999/xlink" width="200" height="200"><defs><style type="text/css"></style></defs><path d="M192 512h128v64H192zM448 512h128v64h-128zM192 704h128v64H192zM448 704h128v64h-128zM704 512h128v64h-128z" p-id="4688"></path><path d="M960 320V128h-192V64h-64v64H320V64H256v64H64v832h896V320zM256 192v64h64V192h384v64h64V192h128v128H128V192h128z m640 704H128V384h768v512z" p-id="4689"></path></svg>