<?xml version="1.0" standalone="no"?><!DOCTYPE svg PUBLIC "-//W3C//DTD SVG 1.1//EN" "http://www.w3.org/Graphics/SVG/1.1/DTD/svg11.dtd"><svg t="1584519776705" class="icon" viewBox="0 0 1024 1024" version="1.1" xmlns="http://www.w3.org/2000/svg" p-id="5630" xmlns:xlink="http://www.w3.org/1999/xlink" width="200" height="200"><defs><style type="text/css"></style></defs><path d="M769.6 576.8c-43.2 43.2-100 66.4-161.6 66.4s-118.4-24-160.8-66.4c-43.2-43.2-67.2-100-67.2-161.6s24-118.4 67.2-160.8c43.2-43.2 100-67.2 160.8-67.2s118.4 24 161.6 67.2c43.2 43.2 66.4 100 66.4 160.8s-24 119.2-66.4 161.6zM608 112c-168 0-304 136-304 304 0 70.4 24 135.2 64 186.4l-40.8 40.8-62.4-62.4c-3.2-3.2-8-3.2-11.2 0l-40 40c-3.2 3.2-3.2 8 0 11.2l62.4 62.4-44.8 44.8-62.4-62.4c-3.2-3.2-8-3.2-11.2 0l-40 40c-3.2 3.2-3.2 8 0 11.2l62.4 62.4-65.6 65.6c-3.2 3.2-3.2 8 0 11.2l42.4 42.4c3.2 3.2 8 3.2 11.2 0L421.6 656c51.2 40 116 64 186.4 64 168 0 304-136 304-304S776 112 608 112z" p-id="5631"></path></svg>