<?xml version="1.0" standalone="no"?><!DOCTYPE svg PUBLIC "-//W3C//DTD SVG 1.1//EN" "http://www.w3.org/Graphics/SVG/1.1/DTD/svg11.dtd"><svg t="1584519837669" class="icon" viewBox="0 0 1024 1024" version="1.1" xmlns="http://www.w3.org/2000/svg" p-id="5899" xmlns:xlink="http://www.w3.org/1999/xlink" width="200" height="200"><defs><style type="text/css"></style></defs><path d="M866.816 977.92H157.696c-61.44 0-111.616-50.176-111.616-111.616V265.216C46.08 203.776 96.256 153.6 157.696 153.6h709.12c61.44 0 111.616 50.176 111.616 111.616v601.6c-0.512 60.928-50.688 111.104-111.616 111.104zM157.696 194.56C118.784 194.56 87.04 226.304 87.04 265.216v601.6c0 38.912 31.744 70.656 70.656 70.656h709.12c38.912 0 70.656-31.744 70.656-70.656V265.216c0-38.912-31.744-70.656-70.656-70.656H157.696z" p-id="5900"></path><path d="M87.04 265.216H46.08V151.04C46.08 93.184 93.184 46.08 151.04 46.08h484.352c39.424 0 71.168 31.744 71.168 71.168V194.56H157.696C118.784 194.56 87.04 226.304 87.04 265.216zM151.04 87.04C115.712 87.04 87.04 115.712 87.04 151.04v27.648c19.456-15.872 43.52-25.088 70.656-25.088H665.6v-36.352c0-16.896-13.824-30.208-30.208-30.208H151.04zM977.92 675.84h-294.4c-60.928 0-110.08-49.152-110.08-110.08 0-29.184 11.264-56.832 32.256-77.824s48.64-32.256 77.824-32.256H977.92v220.16z m-294.4-179.2c-18.432 0-35.84 7.168-48.64 20.48-13.312 13.312-20.48 30.208-20.48 48.64 0 37.888 31.232 69.12 69.12 69.12H936.96V496.64h-253.44z" p-id="5901"></path><path d="M686.08 568.32m-25.6 0a25.6 25.6 0 1 0 51.2 0 25.6 25.6 0 1 0-51.2 0Z" p-id="5902"></path></svg>