<?xml version="1.0" encoding="iso-8859-1"?>
<!-- Generator: Adobe Illustrator 17.0.0, SVG Export Plug-In . SVG Version: 6.00 Build 0)  -->
<!DOCTYPE svg PUBLIC "-//W3C//DTD SVG 1.1//EN" "http://www.w3.org/Graphics/SVG/1.1/DTD/svg11.dtd">
<svg version="1.1" id="&#x56FE;&#x5C42;_1" xmlns="http://www.w3.org/2000/svg" xmlns:xlink="http://www.w3.org/1999/xlink" x="0px"
	 y="0px" width="378px" height="104px" viewBox="0 0 378 104" style="enable-background:new 0 0 378 104;" xml:space="preserve">
<g>
	<path style="fill:#FFFFFF;" d="M110.465,33.429l0.089,0.252c0.016,0.016,0.016,0.022,0.016,0.039c0,0.004,0,0.004,0,0.004
		l0.355,0.946h8.885l-3.025-34.205H3.027L0,34.671h8.898l0.349-0.946c0,0,0,0,0-0.004c0-0.017,0.022-0.023,0.022-0.039l0.093-0.252
		c5.234-13.921,18.98-23.878,35.042-23.878v73.809c0,8.917-8.05,11.357-11.952,11.997l0,0c0,0-0.043,0-0.122,0.026l-1.942,0.35
		v2.463v3.226v2.221h59.034v-2.221v-3.226v-2.463l-1.937-0.35c-0.081-0.026-0.116-0.026-0.116-0.026l0,0
		c-3.911-0.64-11.952-3.08-11.952-11.997V9.552C91.481,9.552,105.208,19.508,110.465,33.429z"/>
	<path style="fill:#FFFFFF;" d="M228.317,84.695c-0.951,1.144-2.015,2.085-3.243,2.796c-1.638,0.985-3.492,1.455-5.522,1.455
		c-3.718,0-7.243-1.203-10.517-3.626c-2.12-1.549-7.665-7.171-11.837-11.728c5.645-5.098,15.604-16.849,20.275-21.367
		c3.259-3.177,6.827-3.72,7.95-3.747h2.683v-8.144h-37.171v8.144h6.191c1.792,0.038,4.389,1.899,3.376,5.015
		c-0.591,1.866-4.327,7.691-9.34,11.657c-0.193,0.143-0.282,0.225-0.282,0.225L172.31,42.133l5.698-2.824l2.02-0.929
		c17.879-7.806,15.372-21.192,15.372-21.192l-0.023,0.011c-0.647-4.136-2.49-7.55-6.357-10.492
		c-5.086-3.878-13.562-6.455-23.306-6.455c-1.09,0-2.159,0.033-3.216,0.082c0-0.01,0-0.01,0-0.01c-0.027,0-0.049,0.01-0.087,0.01
		c0,0,0,0-0.018,0c-23.367,0.756-31.256,13.654-30.31,25.628c0.294,3.91,1.843,8.002,4.862,13.144
		c1.141,1.932,4.417,6.57,4.417,6.57l-0.209,0.05c0,0-0.046-0.05,0,0.006l-4.766,2.296c-1.483,0.695-2.892,1.379-4.205,2.063
		l-0.309,0.136l0.021-0.01c-4.017,2.067-7.363,3.932-9.947,5.765c-8.61,6.088-12.389,13.609-12.389,21.865
		c0,8.264,3.397,14.779,10.176,19.528c5.998,4.19,13.423,6.268,22.254,6.268c0.431,0,0.885,0,1.35-0.032
		c0,0.015-0.017,0.032-0.017,0.032c0.183-0.016,0.371-0.049,0.554-0.059c2.528-0.165,5.814-0.548,9.14-1.614
		c8.45-2.439,16.415-6.926,23.986-11.865l0.626,0.749c0,0,9.771,13.397,27.261,12.877c0.21,0,0.438,0.015,0.675,0.015
		c3.614,0,7.15-0.869,10.758-2.417c1.316-0.563,2.523-1.188,3.65-1.865l-0.071,0.083c0.204-0.127,0.387-0.263,0.603-0.389
		c1.217-0.75,2.341-1.587,3.353-2.473c3.38-2.785,5.825-5.919,7.509-8.084c0.016-0.028,0.659-0.859,1.283-1.789l-3.685-2.993
		L228.317,84.695z M165.145,84.149c-1.045,0.415-1.943,0.744-2.291,0.892c-11.919,4.333-18.947-0.504-20.284-1.564
		c-1.019-0.811-2.037-1.816-3.094-3.063c-5.866-7.003-3.537-14.211-3.537-14.211h0.018c1.373-5.219,5.8-8.632,8.87-10.399
		l3.227-1.663l22.121,27.56C168.509,82.616,166.849,83.437,165.145,84.149z M165.465,33.593l-6.402-7.979
		c-2.079-2.6-3.297-4.497-3.485-4.825c-0.255-0.443-0.469-0.892-0.653-1.313c-0.621-1.981-1.008-4.332,0.398-6.821
		c0.691-1.104,4.593-6.454,13.302-4.425c1.107,0.3,2.051,0.721,2.783,1.165l-0.012-0.029c0,0,5.739,2.665,6.562,10.684
		c0.012,0.301,0.029,0.903-0.054,1.684c-0.885,6.877-7.115,9.273-7.115,9.273L165.465,33.593z"/>
	<path style="fill:#FFFFFF;" d="M331.472,0.466h-0.033v8.091c1.715,0,13.563,0,14.635,0c3.837,0.492,5.821,4.698,4.384,8.632
		l-16.838,45.304l-16.869-45.304c-0.04-0.071-0.075-0.159-0.108-0.219c-1.398-4.124,0.792-8.451,4.986-8.451h3.764V0.466h-10.938
		h-0.063h-0.076h-34.013h-0.095h-0.083h-6.248v8.091c0.786,0,2.451,0,2.48,0c5.987,0.016,8.189,4.452,9.732,8.632l3.349,8.937
		L275.94,62.492l-16.854-45.304c-1.566-4.191,0.63-8.671,4.92-8.671h3.752V0.466h-52.29v8.091c0.786,0,3.237,0,3.266,0
		c5.963,0.016,8.188,4.452,9.737,8.632l32.186,86.439h12.827l22.389-60.232l22.43,60.232h12.819l32.121-86.439
		c1.51-4.191,4.918-8.686,10.574-8.686H378V0.466H331.472z"/>
</g>
</svg>
