<?xml version="1.0" standalone="no"?><!DOCTYPE svg PUBLIC "-//W3C//DTD SVG 1.1//EN" "http://www.w3.org/Graphics/SVG/1.1/DTD/svg11.dtd"><svg t="1584519741208" class="icon" viewBox="0 0 1024 1024" version="1.1" xmlns="http://www.w3.org/2000/svg" p-id="5496" xmlns:xlink="http://www.w3.org/1999/xlink" width="200" height="200"><defs><style type="text/css"></style></defs><path d="M508.114349 0c-27.743842 0-55.487685 2.522167-83.231527 5.044335a40.35468 40.35468 0 0 0-20.17734 7.566502c-2.522167 0-2.522167 2.522167-5.044335 5.044335a40.606897 40.606897 0 0 0-10.08867 17.655173 167.471921 167.471921 0 0 1-83.231527 113.497537 184.118227 184.118227 0 0 1-88.275862 22.699507 191.936946 191.936946 0 0 1-52.965518-7.566502c-2.522167 0-7.566502-2.522167-10.08867-2.522168a55.487685 55.487685 0 0 0-30.266009 12.610838 550.336946 550.336946 0 0 0-95.842365 166.463054 36.319212 36.319212 0 0 0 10.08867 37.832512 176.551724 176.551724 0 0 1 58.009852 131.15271 183.10936 183.10936 0 0 1-55.487684 131.152709 42.120197 42.120197 0 0 0-10.08867 37.832512 558.155665 558.155665 0 0 0 40.354679 88.275862A550.841379 550.841379 0 0 0 127.771492 844.926108a40.102463 40.102463 0 0 0 25.221675 12.610838 15.133005 15.133005 0 0 0 10.088669-2.522168 191.936946 191.936946 0 0 1 52.965518-7.566502 162.175369 162.175369 0 0 1 88.275862 25.221675 183.86601 183.86601 0 0 1 85.753694 116.019704 32.283744 32.283744 0 0 0 27.743843 25.221675 650.466995 650.466995 0 0 0 98.364532 10.08867 582.116256 582.116256 0 0 0 93.320197-7.566502 32.283744 32.283744 0 0 0 27.743842-25.221675 167.471921 167.471921 0 0 1 83.231527-113.497537 184.118227 184.118227 0 0 1 88.275862-22.699508 191.936946 191.936946 0 0 1 52.965518 7.566503c2.522167 0 7.566502 2.522167 10.088669 2.522167a46.660099 46.660099 0 0 0 17.655173-5.044335c2.522167-2.522167 7.566502-5.044335 10.08867-7.566502a521.584236 521.584236 0 0 0 95.842364-166.463054 36.319212 36.319212 0 0 0-10.08867-37.832513 176.551724 176.551724 0 0 1-58.009852-131.152709 183.10936 183.10936 0 0 1 55.487685-131.152709 40.35468 40.35468 0 0 0 10.08867-37.832513 558.155665 558.155665 0 0 0-40.35468-88.275862 550.841379 550.841379 0 0 0-55.487685-78.187192 25.221675 25.221675 0 0 0-25.221675-15.133005 15.133005 15.133005 0 0 0-10.088669 2.522168A191.936946 191.936946 0 0 1 808.756713 176.551724a162.175369 162.175369 0 0 1-88.275862-25.221675 183.86601 183.86601 0 0 1-85.753694-116.019704A38.589163 38.589163 0 0 0 606.983314 7.566502a645.927094 645.927094 0 0 0-98.364532-7.566502m0 68.098522a530.916256 530.916256 0 0 1 63.054187 5.044335A247.676847 247.676847 0 0 0 682.648339 209.339901a238.849261 238.849261 0 0 0 123.586207 32.788178 341.753695 341.753695 0 0 0 50.44335-5.044335 386.900493 386.900493 0 0 1 35.310344 52.965517 569.000985 569.000985 0 0 1 27.743843 55.487685 246.66798 246.66798 0 0 0-63.054187 163.940887 241.875862 241.875862 0 0 0 63.054187 163.940886 398.75468 398.75468 0 0 1-60.53202 105.931035 341.753695 341.753695 0 0 0-50.44335-5.044335 265.836453 265.836453 0 0 0-123.586207 32.788177 247.676847 247.676847 0 0 0-110.975369 136.197044 489.804926 489.804926 0 0 1-60.53202 5.044335 530.916256 530.916256 0 0 1-63.054187-5.044335 247.676847 247.676847 0 0 0-110.975369-136.197044 238.849261 238.849261 0 0 0-123.586207-32.788177 341.753695 341.753695 0 0 0-50.44335 5.044335 611.877833 611.877833 0 0 1-35.310345-50.44335A379.586207 379.586207 0 0 1 102.549817 673.418719a246.66798 246.66798 0 0 0 63.054187-163.940886A246.66798 246.66798 0 0 0 102.549817 345.536946a442.640394 442.640394 0 0 1 60.532019-105.931035 341.753695 341.753695 0 0 0 50.44335 5.044335 265.836453 265.836453 0 0 0 123.586207-32.788177A247.676847 247.676847 0 0 0 447.582329 75.665025a282.734975 282.734975 0 0 1 60.53202-7.566503m5.044335 234.561577a206.817734 206.817734 0 1 0 206.817734 206.817734 206.061084 206.061084 0 0 0-206.817734-206.817734m0 68.098522a138.719212 138.719212 0 1 1-138.719212 138.719212 138.214778 138.214778 0 0 1 138.719212-138.719212" p-id="5497"></path></svg>