<?xml version="1.0" standalone="no"?><!DOCTYPE svg PUBLIC "-//W3C//DTD SVG 1.1//EN" "http://www.w3.org/Graphics/SVG/1.1/DTD/svg11.dtd"><svg t="1584519591405" class="icon" viewBox="0 0 1024 1024" version="1.1" xmlns="http://www.w3.org/2000/svg" p-id="5362" xmlns:xlink="http://www.w3.org/1999/xlink" width="200" height="200"><defs><style type="text/css"></style></defs><path d="M913.606 917.804C897.194 766.298 797.028 639.921 660.36 585.927 735.969 536.924 786 451.809 786 355c0-151.878-123.122-275-275-275S236 203.122 236 355c0 97.136 50.365 182.506 126.403 231.429-136.033 54.268-235.647 180.328-252.009 331.375 0 0 2.799 32.873 36.606 33 32.606 0.122 35.907-33 35.907-33 21.177-159.913 156.16-283.906 320.899-287.897 2.391 0.061 4.788 0.094 7.194 0.094 2.614 0 5.216-0.045 7.812-0.117 165.365 3.33 301.044 127.561 322.28 287.921 0 0 3.373 33.286 38.908 33.044 34.163-0.235 33.606-33.045 33.606-33.045zM511 555c-110.457 0-200-89.543-200-200s89.543-200 200-200 200 89.543 200 200-89.543 200-200 200z" p-id="5363"></path></svg>